<?xml version="1.0" encoding="UTF-8"?><svg id="Layer_1" xmlns="http://www.w3.org/2000/svg" viewBox="0 0 772.23 263.24"><defs><style>.cls-1{fill:#282829;stroke-width:0px;}</style></defs><path class="cls-1" d="M300.92,206.48c-.62-2.26-.72-4.53-3.21-5.54-.8,2.52,1.94,3.3,2.24,5.18.02.13.5.19.97.36M561.57,167.11c.39-1.65.16-2.24-1.16-2.78-1.39-.56-3.01-.72-4.22-1.51-1.69-1.1-3.27-.64-4.97-.4,2.88,2.73,6.99,2.58,10.36,4.68M312.81,227.04c-.75-2.96-1.39-5.47-2.05-8.1-1.52-.1-2.57-2.15-4.36-.92-.53,1.31-.07,2.23.82,3.1.91.88,1.76,1.76,2.29,3.04.49,1.18,1.54,2.2,3.29,2.87M199.41,240.41c.72.1,1.26.19,1.8.25,2.22.26,4.55-.6,6.69.63.14.08.43-.11.66-.16.78-.16,1.56-.31,2.33-.47,2.61-.53,4.84-1.62,6.06-4.17.48-1.01.96-2.02,1.46-3.03.7-1.41.28-2.66-1.16-2.9-.92-.15-2.01-.13-2.85.22-1.68.71-3.23,1.73-4.85,2.57-1.64.84-3.26,2.13-4.97,2.29-2.44.23-3.37,2.03-4.81,3.35-.27.25-.22.84-.35,1.42M447.22,165.15c-1.84-1.05-2.96-2.05-4.63-1.99-.69.02-1.39-.27-2.08-.45-.75-.19-1.49-.55-2.25-.58-1.95-.08-3.91-.02-5.86,0h-7.86c-1.18,1.4-2.05,2.54-3.03,3.58-.93.98-1.38,1.95-.44,3.44,1.29-.09,2.8.16,3.96-.36,2.81-1.25,5.43-1.04,7.93.17,1.02-.33,1.9-.8,2.82-.87,2.29-.19,4.53.04,6.84-.94,1.35-.57,2.65-1.22,4.61-1.98M332.01,203.03c2.5,1.06,4.46-.64,6.5-1.21,1.38-.39,2.48-.95,3.84-.2.22.12.59,0,.89-.03,1.19-.15,2.38-.31,3.57-.46.8-.1,1.79.08,2.36-.33,1.12-.81,2.29-.72,3.5-.73,1.96,0,3.92.06,5.87-.03,1.16-.05,2.31-.35,3.89-.6.52.48,1.44.87,2.55-.15.39-.36,1.24-.26,1.88-.27,1.71-.03,3.43,0,5.14-.02.56,0,1.17,0,1.68-.2,1.48-.55,2.9-1.63,4.38-1.71,2.2-.13,3.32-1.51,4.58-2.84.44-.46.96-1.47.75-1.8-.42-.67-1.27-1.13-2.02-1.51-.39-.2-.96-.04-1.45-.04-3.67,0-7.34.06-11.01-.03-1.48-.04-2.94-.42-4.34-.63-1.24.22-2.46.52-3.69.64-1.42.14-2.75.33-4.16.79-1.75.57-3.43,1.85-5.5,1.48-.46-.08-1.02.35-1.53.57-1.1.48-2.16,1.07-3.29,1.44-1.5.5-3.15.63-4.57,1.27-2.92,1.3-5.76,2.79-8.59,4.3-.73.39-1.57.96-1.22,2.29M321.07,232.32c1.58-.25,2.67-.38,3.74-.6.92-.19,1.83-.65,2.75-.66,2.6-.04,4.92-1.59,7.57-1.29.18.02.38-.31.6-.38.61-.19,1.23-.34,1.84-.49,1.7-.41,3.4-.79,5.09-1.23.28-.07.48-.43.75-.61,2.26-1.49,4.53-2.97,6.8-4.44.8-.52,1.82-.84,2.38-1.55,2.15-2.71,5.41-4.09,7.71-6.6.11-.12.25-.24.4-.28,2.48-.66,3.63-2.91,5.33-4.48.31-.28.27-.94.43-1.58-2,0-3.92-.5-5.32.14-1.45.66-2.77.75-4.2.77-2.37.03-4.74-.02-7.1.02-.63,0-1.26.19-1.88.35-.91.23-1.8.66-2.72.74-1.99.18-4.07-.36-5.89.98-.33.24-.95.08-1.44.12-.48.04-1.11-.06-1.42.2-1.27,1.09-2.76.8-4.2.85-.65.02-1.49-.21-1.92.11-2,1.46-4.24.92-6.38.9-2.16-.02-4.18.12-5.93,1.73-.15,1.22-.09,2.36.57,3.65,1.62,3.16,2.86,6.48,2.49,10.17-.1.95-.01,1.92-.01,3.45M150.36,228.91c1.96,0,3.92-.11,5.87.03,1.79.13,2.61-1.12,3.58-2.17.85-.93-.08-1.62-.45-2.39-.1-.21-.13-.48-.13-.72-.04-2.63-1.09-5-2.19-7.28-1.91-3.98-3.85-8.01-7.31-10.94-2.51-2.13-5.23-4-8.8-3.85-.48.02-1.06.03-1.42-.21-1.93-1.3-4.4-.69-6.38-1.86-.88-.51-1.93-.99-2.91-1.02-3.99-.12-7.99-.06-11.99-.05-1.12,0-2.03.66-2.15,1.65-.2,1.59-.51,3.44.08,4.81,1.22,2.85,2.72,5.69,4.62,8.11,2.43,3.09,4.58,6.49,7.77,8.94.82.63,1.69,1.18,2.57,1.72,1.02.64,2.21,1.07,3.06,1.88,1.05,1,2.14,1.35,3.52,1.24,1.05-.09,2,.1,2.99.72,1.71,1.08,3.63,1.66,5.75,1.4,1.29-.16,2.61-.03,3.91-.03M410.56,161.18c-1.32-.08-2.11-.17-2.9-.17-3.43-.02-6.86,0-10.29,0-1.13,0-2.19-.39-3.25-.63-2.08-.45-4.41-.56-6.45-.05-1.24.31-2.45.67-3.73.68-6.53,0-13.07,0-19.6,0-.73,0-1.68-.17-2.14.21-1.29,1.08-2.73.87-4.18.9-.48,0-1.11-.02-1.39.26-1.02,1-2.25.77-3.46.83-.64.03-1.45-.05-1.88.3-1.09.87-2.29.71-3.5.74-1.22.03-2.69-.34-3.61.2-1.71,1.01-3.44.77-5.2.85-.48.02-1,0-1.44.18-1.48.56-2.9,1.51-4.42,1.71-2.14.29-4.21.72-6.32,1.21-2.1.49-4.06,1.25-6.09,1.9-2.73.87-4.79,2.85-7.26,4.15-1.76.93-3.64,1.78-5.13,3.06-2.46,2.13-4.69,4.53-6.94,6.9-.9.95-.82,3,0,4.08.39.52,1.02.91,1.26,1.48,1.34,3.1,4.27,4.98,5.97,7.85,1.2,2.01,3.17,3.57,5,5.55,2-1.64,4.17-3.39,6.32-5.16.44-.36.81-.82,1.28-1.12,2.63-1.65,5.47-3.03,7.87-4.96,2.63-2.11,5.75-3.18,8.59-4.81,2.27-1.3,4.91-1.74,7.24-3.04,2.33-1.29,4.87-2.39,7.69-2.4.44,0,.86-.39,1.31-.54.53-.18,1.07-.41,1.61-.44,1.06-.06,2.02-.51,2.98-.71,2.02-.41,3.77-1.86,6.01-1.48.69.12,1.49-.4,2.25-.62.53-.16,1.07-.32,1.61-.46,1.85-.47,3.7-.91,5.54-1.41,2.06-.56,4.09-1.25,6.16-1.74,2.01-.47,4.06-.76,6.09-1.15.23-.04.42-.26.64-.33.83-.25,1.66-.61,2.51-.68,1.38-.11,2.78,0,4.16-.04.63-.02,1.25-.21,1.87-.36.92-.22,1.82-.59,2.75-.67,1.38-.12,2.78.06,4.16-.07.75-.07,1.71-.34,2.14-.87,1.75-2.17,3.36-4.47,4.98-6.75.4-.57.64-1.25,1.19-2.36M616.56,188.98c-1.62,1.33-2.05,3.58-1.16,5.75.36.87.57,1.84.64,2.77.1,1.46.05,2.93.02,4.4-.02,1.63-.06,3.22,1.01,4.65.51.69.77,1.58,1.08,2.4.9,2.39,1.72,4.81,2.65,7.18.58,1.48,1.72,2.73,1.74,4.46,0,.35.34.71.55,1.05.84,1.36,1.69,2.72,2.55,4.07.43.67.89,1.33,1.35,1.99.68.98,1.34,1.98,2.05,2.93,1.35,1.8,2.69,3.6,4.1,5.35,2.97,3.69,7.19,6,10.48,9.35.36.36.99.66,1.48.65,1.12-.04,1.79.56,2.54,1.23,1.32,1.19,5.25,1.29,6.64.31.91-.65,1.85-1.26,2.84-1.77,1.59-.81,3.08-1.73,4.27-3.1.31-.35.73-.65,1.16-.84,2.68-1.24,4.36-3.62,6.21-5.72,1.03-1.16,1.52-2.82,2.16-4.3.21-.49.28-1.18.1-1.66-.78-2.09-1.65-4.16-2.52-6.21-1.56-3.66-4.24-6.64-6.7-9.61-2.1-2.52-3.54-5.4-5.23-8.07-2.24-3.54-5.45-5.6-8.71-7.75-1.92-1.27-4.08-2.11-6.36-2.67-1.6-.39-3.12-1.12-4.7-1.63-1.51-.48-3.08-.78-4.58-1.31-1.55-.55-3-1.63-4.58-1.84-2.45-.32-4.96-.04-7.33-1.14-1.05-.48-2.28-.57-3.72-.91M403.62,147.42c.83-.77,1.99-1.2,3.33.04.34.31,1.09.21,1.66.22,1.71.03,3.44-.07,5.14.04.84.05,1.71.34,2.47.72,2.04,1.01,3.8.44,4.82-1.62.25-.5.54-.99.91-1.4,1.38-1.56,2.72-3.13,3.96-4.84,2.11-2.91,4.45-5.67,6.41-8.72,1.43-2.22,2.93-4.39,4.36-6.61.39-.6.48-1.48.98-1.91,1.8-1.57,1.72-3.91,2.57-5.86.63-1.45.78-3.13,1.49-4.53,1.42-2.81,2.68-5.63,2.91-8.83.03-.38.29-.74.47-1.1,1.43-2.88,2.81-5.77,2.71-9.11,0-.32-.02-.74.15-.95,1.85-2.21-.03-5.2,1.56-7.46.05-.08-.07-.3-.14-.44-.85-1.65-.83-3.24.21-4.83.24-.38.31-.94.28-1.41-.18-2.47.68-5.05-.88-7.38-.24-.35-.05-.97-.16-1.44-.18-.77-.41-1.52-.69-2.26-.59-1.57-1.7-2.97-1.4-4.81.41-2.46-.83-4.58-1.69-6.68-1.03-2.5-2.53-4.81-3.94-7.14-.87-1.44-1.89-2.79-2.95-4.1-.86-1.06-1.83-1.95-2.43-3.29-.45-1-1.69-1.66-2.63-2.42-.49-.4-1.19-.57-1.59-1.03-1.14-1.32-2.53-2.31-4.12-2.88-1.46-.52-2.45-1.51-3.48-2.54-.4-.4-.85-.78-1.34-1.03-2.71-1.38-5.43-2.73-8.16-4.06-1.73-.84-3.42-1.82-5.24-2.36-.96-.29-1.72-.66-2.55-1.19-1.32-.85-2.79-1.51-4.29-2-1.73-.58-3.6-.75-5.31-1.36-2.15-.77-4.16-1.95-6.54-1.93-.24,0-.5-.02-.72-.12-2.48-1.12-4.97-2.2-7.8-1.99-.24.02-.56.02-.71-.12-1.54-1.33-3.4-.87-5.16-.91-2.37-.05-4.74.02-7.1-.03-.71-.01-1.59-.02-2.09-.41-.88-.71-1.8-.64-2.77-.64-1.63,0-3.27.05-4.9-.02-.71-.03-1.4-.29-2.1-.46-.76-.2-1.5-.53-2.26-.61-.97-.11-1.96.05-2.94-.04-3.26-.3-6.68.87-9.78-1.01-.06-.04-.17-.05-.24-.02-.8.32-1.58.82-2.41.92-.87.1-1.78-.29-2.67-.28-.95.02-1.89.27-2.84.4-.64.09-1.49-.08-1.88.28-1.12,1.03-2.41.81-3.7.85-.56.02-1.32-.1-1.65.21-1.18,1.1-2.58.8-3.94.86-.81.04-1.65-.01-2.42.2-2.05.57-4.07,1.28-6.11,1.89-1.52.45-3.09.74-4.58,1.27-2.6.92-5.15,1.99-7.74,2.94-1.19.44-2.46,1.15-3.64,1.06-3.04-.23-5.18,1.97-7.94,2.57-2.49.55-4.73,2.29-7.04,3.58-1.8,1-3.52,2.16-5.32,3.16-1.33.74-2.93,1.11-4.07,2.05-2.35,1.95-4.47,4.13-6.99,5.94-2.45,1.76-5.19,3.31-7.07,5.82-.21.28-.75.29-1.08.5-1.32.88-3.12,1.52-3.8,2.76-.99,1.82-2.15,2.73-4.28,2.69-1.18,4.77-5.02,7.78-7.5,11.69-.77,1.21-2.01,2.13-3.07,3.14-.92.88-1.64,1.8-1.44,3.18.16,1.06-.27,1.89-1.07,2.59-.49.43-1.19.86-1.33,1.4-.66,2.53-2.07,4.76-2.82,7.19-.44,1.45-.53,2.76-2.3,3.22.12,1.12-.09,2.27.38,2.99.86,1.31.82,2.66.68,4-.13,1.25-.89,2.45-.89,3.68s.6,2.45.94,3.67c.19.68.32,1.4.64,2.03,1.91,3.8,4.37,7.29,6.43,10.98,1.33,2.38,3.3,4.15,4.63,6.45,1.04,1.79,2.2,3.52,3.39,5.22,1.24,1.77,2.55,3.5,3.86,5.22,1.42,1.85,3.23,3.5,4.22,5.56,1.16,2.38,3.23,3.96,4.5,6.24,1.28,2.28,3.27,4.16,4.95,6.21.1.13.27.25.29.39.28,1.68,1.61,2.61,2.71,3.66,2.67,2.54,4.51,5.61,6.1,8.89,1.37,2.82,3.11,5.41,5.2,7.78,1.21,1.37,2.44,2.86,3.15,4.52,1.14,2.64,2.89,3.78,5.7,3.43.4-.05.86.1,1.22-.04.65-.24,1.59-.48,1.81-.98.59-1.33,1.83-1.85,2.72-2.75,1.93-1.96,4.27-3.12,6.62-4.31,1.85-.94,3.71-1.91,5.67-2.57,1.69-.57,3.39-1.05,4.64-2.39,1.15-1.23,2.29-2.27,4.18-1.94.46.08,1-.38,1.51-.58,1.25-.51,2.48-1.35,3.77-1.47,2.4-.23,4.57-1.73,7.08-1.2.13.03.31-.09.45-.16,2.44-1.34,5.36-.68,7.84-1.86.2-.1.49,0,.73-.03.32-.04.75,0,.93-.21,1.05-1.09,2.38-.89,3.67-.91.49,0,1.11.11,1.44-.13,1.75-1.33,3.76-.75,5.66-.93.93-.09,1.83-.48,2.76-.64,2.19-.39,4.14-1.79,6.52-1.47,1.04.14,2.36.36,3.13-.13,1.76-1.11,3.59-.83,5.43-.9.4-.02.94.07,1.19-.15,1.7-1.5,3.73-.78,5.63-.96.72-.06,1.66.11,2.11-.28,1.08-.94,2.26-.77,3.47-.81.89-.03,2.01.24,2.64-.19,1.66-1.14,3.44-.84,5.19-.85,4.41-.03,8.82-.06,13.23.02,1.24.02,2.47.43,4.27.76M312.38,246.38c-1.68,1.24-3.27,1.74-4.99.36-.32-.26-.94-.23-1.42-.22-2,.04-3.54-.93-4.98-2.15-2.81-2.39-4.87-5.37-6.5-8.63-.6-1.19-.89-2.54-1.4-4.05.76-1.49,1.63-3.2,2.49-4.92.91-1.83.41-4.26-.92-5.85-1.42-1.7-3.05-2.5-5.31-2.25-1.61.18-3.26.03-4.9.04-1.21,0-2.42-.16-3.48.77-.36.31-1.08.21-1.65.27-.49.05-1.13-.13-1.44.12-1.65,1.36-3.57.86-5.4.93-1.13.05-2.19-.03-3.23.77-.61.46-1.71.31-2.6.36-1.75.11-3.42.18-5.2.78-2.09.71-4.66.96-6.41-.5-1.85.3-3.4.53-4.94.8-.62.11-1.23.32-1.83.52-.23.07-.41.31-.63.36-2.11.42-4.22.82-6.33,1.22-.24.05-.56-.05-.72.07-2.11,1.58-4.55.87-6.86.96-3.25.11-3.74,1.21-2.89,4.3.6,2.17.56,4.73.05,6.94-.4,1.74-.64,3.9-2.53,5.05-.12.07-.2.28-.21.43-.04,3.17-2.97,4.26-4.56,6.32-.14.18-.42.39-.61.37-2.13-.23-3.16,1.38-4.44,2.58-.24.22-.49.59-.75.6-2.1.07-3.86,1.44-6.09,1.32-4.24-.23-8.5-.17-12.74-.02-2.37.08-4.31-1.1-6.48-1.59-.07-.02-.13-.15-.19-.14-3.26.17-4.48-3.16-7.14-4.19-1.38-.54-3.1-2.08-2.35-4.08.55-1.47.98-2.88,1.02-4.43,0-.29.21-.64.43-.84,1.94-1.75,2.46-4.31,3.79-6.41.47-.74.9-1.64,1.59-2.07,2.23-1.39,4.52-2.7,6.89-3.83,1.84-.87,3.74-1.77,5.85-1.8,1.08,0,1.91-.3,2.59-1.6-.95-.52-1.89-1.03-2.84-1.55-1.62-.88-3.23-1.75-4.86-2.62-.14-.07-.32-.13-.47-.12-3.05.26-5.27-1.71-7.79-2.88-.22-.1-.44-.31-.65-.3-2.12.11-4.13-.19-6.08-1.13-2.64-1.28-5.85-.93-8.3-2.83-.24-.19-.61-.34-.9-.31-2.17.26-3.84-1.04-5.64-1.82-1.67,1.43-1.73,1.49-.47,2.82.84.89,1.11,1.84,1.27,3.04.18,1.31.69,2.67,1.39,3.79,1.3,2.07,1.98,4.2,1.82,6.65-.05.75.23,1.59.59,2.28.5.95.44,1.68-.3,2.42-2.66,2.65-5.3,5.31-7.96,7.96-.22.22-.56.49-.82.47-1.22-.1-2.13.86-3.14,1.02-4.69.73-9.38,1.83-14.18,1.19-1.07-.14-2.13-.72-3.09-1.29-1.74-1.03-3.46-1.76-5.56-2.05-1.89-.26-3.79-1.37-5.41-2.49-3.09-2.12-6.08-4.39-9.38-6.2-.54-.3-1.15-.87-1.28-1.43-.33-1.4-1.37-2.19-2.27-3.1-1.72-1.74-3.45-3.47-5.2-5.18-1.92-1.87-3.79-3.76-4.61-6.44-.18-.58-.8-1-1.17-1.53-.32-.45-.65-.93-.83-1.44-.67-1.87-1.6-3.73-1.83-5.66-.31-2.63-.08-5.33-.06-8,0-.13.21-.25.27-.4,1.23-3.02,3.62-4.89,6.41-6.29,2.24-1.12,4.18-3.21,7.08-2.41,2.38-1.71,5.19-.68,8.24-1.22-2.09-2.19-3.72-4.34-6.11-5.75-.41-.24-.9-.4-1.23-.73-2-2.02-4.39-3.46-6.87-4.81-.83-.45-1.49-1.27-2.13-2-2.39-2.7-5.5-4.4-8.53-6.21-1.57-.94-3.37-1.62-4.69-2.83-2.21-2.03-4.71-3.55-7.24-5.11-1.35-.84-2.36-2.23-3.51-3.39-.86-.87-1.65-1.79-3.09-1.65-.41.04-.93-.28-1.27-.58-1.26-1.12-2.51-2.16-3.98-3.07-2.51-1.54-4.53-3.84-6.92-5.6-1.79-1.32-3.75-2.47-5.78-3.38-2.02-.91-3.61-2.47-5.45-3.42-2.88-1.48-4.49-4.33-7.43-5.74-1.73-.83-3.32-2.18-5.19-2.93-.07-.03-.14-.09-.2-.14-2.05-1.68-4.08-3.37-6.15-5.03-1.69-1.36-3.41-2.68-5.13-3.99-.24-.18-.62-.31-.91-.26-2.01.32-3.56-.82-5.21-1.63-1.78-.87-3.26-.77-4.62.64-1.45,1.5-3.3,2.71-3.89,4.9-.25.91-.72,1.82-.73,2.73-.07,5.39-.07,10.78,0,16.17.01.91.47,1.82.73,2.73.09.31.36.73.25.9-1.12,1.75.35,3.39.16,5.11-.2,1.77.02,3.59-.07,5.38-.05.85-.27,1.75-.63,2.52-.63,1.36-.64,2.6,0,3.95.37.77.6,1.68.62,2.53.08,2.69.15,5.4-.02,8.08-.09,1.39-.96,2.76-.97,4.14,0,1.29.79,2.57.98,3.89.18,1.28-.28,2.72.11,3.89.88,2.61.93,5.09-.06,7.64-.08.21-.04.49-.01.73.33,2.92-.89,5.47-1.83,8.12-.64,1.8-.93,3.71-1.43,5.56-.42,1.54-.91,3.06-1.39,4.58-.21.68-.48,1.35-.7,2.03-.1.31-.05.72-.23.93-2.61,3.06-3.19,7.12-5.23,10.46-.85,1.39-1.72,2.1-3.1,1.87-.54-.09-1.19-.51-1.46-.97-1.32-2.28-2-4.93-3.98-6.86-.31-.3-.1-1.19-.04-1.8.02-.19.31-.36.48-.54,1.42-1.47,3.26-2.72,4.12-4.46.83-1.68,1.3-3.58,2.23-5.29.32-.59.37-1.44.28-2.13-.27-2.05.31-3.91,1.36-5.54.69-1.07.77-2.1.77-3.24,0-1.55-.04-3.11.03-4.65.03-.71.26-1.41.45-2.1.1-.38.52-.98.44-1.06-1.9-1.65.56-3.6-.4-5.35-.29-.53-.19-1.35-.1-2.02.14-1.02.61-2.01.62-3.02.07-4.49-.02-8.98.07-13.47.02-1.09.49-2.16.71-3.25.42-2.07.7-4.09-.31-6.16-.65-1.34-1.8-2.57-1.49-4.28.09-.48-.07-1.11.19-1.43,1.14-1.44.86-3.09.87-4.7.02-4.74.01-9.47,0-14.21,0-1.13-.29-2.17-.64-3.28-.5-1.57-.75-3.51-.27-5.03,1.18-3.8,2.27-7.75,5.47-10.56.67-.59,1.25-1.29,1.92-1.89,1.4-1.26,2.39-3.23,4.76-2.89,1.56-1.51,3.52-.92,5.35-1,1.2-.05,2.31,0,3.46.79,1.12.77,2.62,1.12,4.01,1.35,2.08.35,3.69,1.34,5.24,2.72,1.49,1.33,3.09,2.63,4.86,3.51,1.14.57,2.09,1.23,2.86,2.15,1.29,1.54,3.05,2.35,4.71,3.35.82.49,1.69.93,2.37,1.57,1.3,1.22,2.56,2.37,4.21,3.21,2.69,1.38,5.07,3.32,7.55,5.08,2.58,1.83,4.71,4.37,7.97,5.29,1.24.35,2.31,1.37,3.4,2.16,1.68,1.23,3.29,2.53,4.96,3.78.7.52,1.47.96,2.19,1.46.46.32.94.63,1.34,1.01,1,.96,2.02,1.91,2.93,2.95,1.42,1.62,3.21,2.65,5.15,3.5.5.22,1.01.52,1.39.91,1.14,1.17,2.42,2.06,3.9,2.82,2.63,1.35,5.08,2.98,7.31,5,1.39,1.26,3.19,2.07,4.81,3.08.27.17.58.32.8.54,2.05,2.09,4.5,3.58,7.04,4.98.55.31.95.88,1.43,1.32,1.18,1.09,2.08,2.54,3.84,2.88.27.05.49.41.73.63,1.54,1.41,3.05,2.78,4.86,3.95,2.81,1.81,5.14,4.36,7.77,6.48,2.11,1.69,4.36,3.21,6.56,4.8.19.14.54.2.6.37,1,3.16,4.53,3.68,6.32,6.08.95,1.28,2.67,2,4.05,2.95.19.13.47.16.7.16,2.47,0,4.57,1.3,6.85,1.87,1.98.5,3.83,1.79,6.06,1.35.56-.11,1.23.26,1.84.45.45.15.92.58,1.32.52,1.67-.25,3.02.53,4.33,1.27,1.17.67,2.31.96,3.65,1.04,1.23.07,2.51.5,3.64,1.04,3.16,1.54,6.79,1.8,9.79,3.78.82.54,1.98.55,2.93.94,1.68.67,3.63.82,4.81,2.48.1.15.46.17.69.17,2.46.03,4.67.9,6.82,2.01.41.21.96.24,1.43.19,2.53-.29,4.54.77,6.35,2.37,1.58,1.39,3.34.82,5.07.46.29-.06.51-.46.8-.52,2.02-.44,4.05-.81,6.08-1.25.69-.15,1.34-.41,2.02-.61.53-.16,1.07-.41,1.61-.43,1.07-.03,2.14.1,2.94-.83.09-.11.29-.18.44-.19,2.1-.07,4.13-.26,6.13-1.09.97-.4,2.21-.09,3.2-.89.37-.3,1.09-.23,1.66-.24,1.71-.03,3.43,0,5.15,0,.49,0,1.12.15,1.44-.09,1.74-1.32,3.73-.88,5.64-.97.47-.03.98-.12,1.39-.34,2.01-1.08,3.98-1.04,6.02-.06.56.27,1.24.4,1.86.4,4.33.04,8.66,0,12.99.04,1.1,0,1.88-.34,2.49-1.47-1.93-2.39-1.97-5.28-1.88-8.23.08-2.94-.08-5.88.05-8.82.13-2.89-.87-5.18-2.97-7.11-1.98-1.81-3.71-3.78-4.65-6.41-.47-1.32-1.39-2.55-2.33-3.62-1.76-1.99-3.04-4.32-4.89-6.3-2.5-2.67-4.95-5.46-6.85-8.67-.65-1.09-1.89-1.81-2.68-2.84-2.3-2.98-5.09-5.58-6.91-8.93-.19-.35-.52-.63-.81-.91-1.84-1.84-3.12-4.05-4.4-6.29-.79-1.39-1.81-2.64-2.7-3.97-.58-.86-1.11-1.76-1.68-2.62-1.49-2.28-3.02-4.53-4.48-6.82-1.03-1.62-1.95-3.3-2.98-4.92-1.64-2.57-3.44-5.04-5.08-7.58-1.76-2.73-4.68-4.52-5.8-7.67-.21-.6-.44-1.19-.66-1.79-.19-.52-.22-1.23-.59-1.53-1.44-1.19-1.63-2.72-1.52-4.41.03-.4.1-.92-.11-1.2-1.54-2.04-.81-4.39-1.01-6.61-.1-1.1-.34-2.18-.58-3.67.14-.63.47-1.71.57-2.8.18-1.99-.41-4.1,1.04-5.86.8-6.11,4.1-11.24,6.67-16.63.92-1.92,2.49-3.54,3.83-5.23.66-.83,1.47-1.52,1.38-2.73-.02-.37.13-.86.38-1.12,1.83-1.86,3.63-3.75,5.6-5.45.58-.5,1.13-.9,1.64-1.54,1.6-2,3.21-4,5.62-5.26,1.89-.99,3.65-2.36,5.19-3.85,1.55-1.49,3.23-2.61,5.16-3.5,1.36-.63,2.64-1.47,3.89-2.32,1.52-1.04,2.87-2.37,4.47-3.24,2.18-1.18,3.71-3.09,5.64-4.49,1.34-.97,3.23-1.41,4.93-1.6,2.21-.25,3.98-1.05,5.55-2.58,2.68-2.6,6.04-4.17,9.29-5.87.52-.27,1.28-.11,1.93-.13,1.04-.04,2.15.21,2.97-.75.1-.11.28-.2.43-.22,2.28-.41,4.57-.75,6.83-1.24,1.31-.28,2.68-.63,3.84-1.28,2.53-1.4,5.33-2.01,7.94-3.09,1.84-.77,3.64-.57,5.36-1.07,1.82-.53,3.53-1.54,5.19-2.49.88-.51,1.58-.72,2.45-.1,1.33.94,2.7.78,4.11.09.63-.31,1.37-.49,2.07-.52,1.71-.07,3.44-.1,5.14,0,1.16.07,2.31.4,3.96.72,2.15-1.51,5.15-.49,8.01-.73,4.45,1.98,9.14.62,13.71,1.05.93.09,1.84.45,2.77.63.86.17,1.74.32,2.61.39,1.83.14,3.74-.38,5.42.91.38.29,1.11.15,1.67.16,1.63.02,3.27-.07,4.9.04.84.06,1.65.55,2.5.65,2.06.25,3.75,1.8,5.96,1.54.7-.08,1.61-.06,2.11.33.96.75,1.97.76,3.01.68,1.4-.11,2.56.24,3.48,1.34.25.3.63.61.99.67,2.21.41,4.26,1.22,6.31,2.14,1.49.67,3.24.73,4.79,1.28,1.19.42,2.34,1.08,3.35,1.83,1.56,1.16,3.07,2.31,5.12,2.4.3.01.66.15.89.35,3.07,2.63,6.56,4.56,10.25,6.16.22.1.44.23.6.41,2.07,2.19,4.6,3.7,7.21,5.14.59.32,1.11,1.02,1.36,1.66.63,1.63,1.75,2.67,3.31,3.35.29.13.66.25.81.49.85,1.35,1.61,2.75,2.46,4.1.85,1.36,1.7,2.72,2.65,4.01,1.33,1.81,2.95,3.44,4.09,5.36.87,1.47,1.35,3.23,1.75,4.92.67,2.87.97,5.87,2.4,8.48.64,1.17.75,2.26.8,3.48.07,1.75-.38,3.57.88,5.17.34.43.22,1.26.23,1.91.02,2.04-.05,4.08.03,6.12.06,1.51-.56,2.79-.93,4.17-.31,1.12.6,2.54.86,3.85.08.43-.17.94-.3,1.4-.25.91-.52,1.82-.78,2.72-.18.61-.34,1.23-.53,1.83-.14.46-.47.9-.47,1.35.07,3.51-1.27,6.57-2.86,9.58-.15.28-.26.61-.28.92-.19,3.12-1.45,5.88-2.87,8.59-.25.48-.43,1.08-.41,1.61.18,3.39-1.64,5.96-3.4,8.57-.39.58-.64,1.26-.92,1.91-.54,1.24-.97,2.55-1.6,3.74-.64,1.2-1.68,2.2-2.18,3.44-.61,1.51-1.71,2.52-2.72,3.68-1.99,2.3-3.89,4.67-5.42,7.32-.36.62-.92,1.14-1.45,1.64-1.43,1.34-2.81,2.71-3.31,4.87,1.01,1.36,2.66,1.83,4.26,2.18,1.09.24,2.23.09,3.23.87.38.3,1.11.12,1.65.25.77.18,1.52.44,2.26.69.3.1.6.4.87.37,2.16-.27,4.11.51,6.11,1.11,2.04.61,4.06,1.31,6.12,1.85.93.24,1.94.28,2.9.23,1.9-.09,3.67.1,5.36,1.12,2.52,1.52,5.38,2.46,7.41,4.83,2.15,2.5,1.58,5.97-1.34,7.44-1.13.57-2.09,1.48-3.21,2.08-2.41,1.28-5.01,1.84-7.73,2.31-2.37.41-4.88.41-7.06,1.12-2.27.74-4.42.71-6.66.84-.41.02-.93-.06-1.19.16-1.41,1.22-3.08.86-4.68.88-3.59.03-7.19,0-10.78.03-.7,0-1.5.09-2.08.43-1.72.98-3.3,1.04-5.01-.06-.53-.34-1.65-.52-2.03-.21-1.37,1.12-2.91,1.08-4.42.9-2.03-.23-3.52.75-4.23,2.28-1.05,2.25-2.92,3.65-4.5,5.37-.33.36-.67.7-1.13,1.19,1.38,1.42,2.92,2.32,4.82,2.45,1.54.11,3.1,0,4.65.03,1.21,0,2.32.09,3.51.69,1.06.54,2.54.34,3.83.33,1.58,0,3.06-.04,4.19,1.42.75.97,1.87.94,2.87.32,1.61-1,3.18-.89,4.84-.11.63.3,1.38.42,2.09.47,2.07.16,4.23-.42,6.15.96.39.28,1.11.11,1.68.11h6.37c1.13,0,2.24-.06,3.23.79.41.36,1.23.31,1.86.32,1.8.04,3.59,0,5.39.02,1.21,0,2.37-.09,3.48.77,1.06.82,2.15.05,2.81-.41,1.36.27,2.43.65,3.5.66,5.72.06,11.44.06,17.15,0,.92,0,1.83-.45,2.75-.65.7-.15,1.42-.34,2.13-.35,3.02-.04,6.05,0,9.07-.02.57,0,1.33.19,1.68-.1,1.95-1.59,4.21-.88,6.35-1.02,1.21-.07,2.42.1,3.49-.79.37-.31,1.1-.17,1.65-.29.77-.17,1.53-.41,2.3-.59.7-.17,1.41-.29,2.1-.45.69-.17,1.38-.35,2.06-.56.3-.1.58-.4.87-.41,2.63-.03,4.86-1.44,7.29-2.01,3.92-.93,7.13-3.22,10.66-4.86,1.81-.84,3.45-2.25,5.36-3.1.56-.25,1-.83,1.44-1.3,1.55-1.66,1.32-3.48-.73-4.27-1.35-.52-2.07-1.31-2.65-2.58-.63-1.37-1.7-2.52-2.4-3.87-.43-.82-.67-1.81-.72-2.74-.11-1.79,0-3.59-.05-5.39-.05-1.98-.13-3.94,1.75-5.29.23-.16.33-.55.43-.85,1.19-3.58,4.24-5.66,6.63-8.26,2.15-.2,4.09-2.76,6.37-.45,2.01-1.27,3.9-1.63,5.99-.32.67.42,1.74.28,2.63.26,1.13-.03,2.02.25,2.82,1.14.9,1.02,1.85,1.98,3.28,2.42.76.24,1.43,1.1,1.92,1.83,1.3,1.92,2.51,3.91,3.7,5.91.23.39.25.95.24,1.42-.05,2.38-.8,4.57-2.25,6.43-.73.93-1.16,1.83-.7,2.89.45,1.05,1.35,1.58,2.56,1.5.98-.06,1.89.03,2.75.74.42.35,1.22.32,1.85.33,3.59.02,7.19,0,10.78,0,1.21,0,2.3.26,3.48.72,1.56.6,3.46.34,5.36.46,0-.73.15-1.23-.03-1.47-.79-1.05-.87-1.96-.05-3.1.38-.52.31-1.41.32-2.13.03-3.1,0-6.21.02-9.31.02-1.68-.18-3.34.87-4.94.5-.77.18-2.06.25-3.12.12-1.83-.42-3.75.87-5.43.25-.33.16-.95.17-1.43.03-1.29-.08-2.57.81-3.73.34-.44.21-1.25.24-1.9.05-1.13-.12-2.28.74-3.25.24-.27.31-.77.29-1.16-.14-2.75,1.04-5.13,1.92-7.64.71-2.01.88-4.21,1.4-6.29.41-1.62.97-3.2,1.49-4.79.1-.3.4-.55.46-.85.42-2.12.78-4.24,1.21-6.36.11-.54.36-1.06.61-1.55,1.17-2.29,2-4.7,2.71-7.16.2-.68.67-1.28.95-1.95,1.26-2.97,2.39-5.99,3.79-8.89,1.05-2.18,2.43-4.21,3.67-6.31.57-.97,1.11-1.97,1.74-2.91.98-1.48,1.93-3,3.05-4.38,2.45-3.01,5.02-5.93,7.51-8.9.3-.36.36-.93.67-1.27.63-.7,1.26-1.51,2.07-1.93,1.43-.74,2.52-1.72,3.16-3.18.48-1.09,1.15-1.89,2.34-2.29.58-.19,1.1-.66,1.57-1.09,1.19-1.12,2.38-2.24,3.47-3.45,2.3-2.56,5.28-4.16,8.14-5.92,1.49-.92,3.06-1.69,4.56-2.58,2.32-1.39,4.88-2.35,6.83-4.45.87-.94,2.56-1.14,3.86-1.69.8-.34,1.56-.8,2.39-1.05,3.03-.95,5.74-2.77,8.93-3.31.36-.06.68-.42.98-.68,1.47-1.29,3.08-2.2,5.07-2.53,1-.16,2.05-.63,2.84-1.26.94-.74,1.91-.81,2.98-.8,1.14.02,2.22.04,3.24-.76.49-.38,1.4-.26,2.13-.29,1.51-.08,3.06.26,4.42-.89.4-.34,1.26-.17,1.91-.17,5.55.04,11.11.2,16.66.1,2.28-.04,4.26.88,6.35,1.4,2.15.54,4.16,1.6,6.42,1.88.75.09,1.43.69,2.15,1.04,2.4,1.16,4.85,2.25,7.21,3.5,2.09,1.11,3.86,2.55,5.23,4.62,1.15,1.73,2.96,3.01,4.44,4.53,3.39,3.48,6.21,7.38,8.18,11.83,1.33,3,2.17,6.21,3.98,9,.28.43.15,1.11.28,1.66.18.77.4,1.53.63,2.28.07.23.29.41.34.64.42,2.04.82,4.08,1.24,6.11.11.54.32,1.06.47,1.6.1.37.38.91.24,1.08-1.21,1.43-.59,2.67.16,4.03.29.51.16,1.28.17,1.93.01,2.78-.15,5.56.05,8.33.26,3.61-.89,6.82-2.33,9.99-.7,1.54-1.4,3.09-2.32,4.5-.7,1.07-.78,2.77-2.56,2.94-2.06,3.93-5.77,6.35-8.72,9.46-1.47,1.55-3.36,2.71-5.1,4-.83.62-1.73,1.13-2.61,1.68-.34.21-.68.46-1.05.56-1.53.41-3.39.37-4.54,1.26-1.82,1.4-3.74,1.9-5.87,2.38-.96.22-1.93.6-2.97.72-1.01.12-1.99.47-2.99.72-.47.11-.94.3-1.41.3-2.53.03-5.15.42-7.57-.1-2.37-.51-4.71-.85-7.11-1.09-1.58-.16-3.02-1.51-4.61-1.74-1.99-.29-3.66-1.57-5.81-1.44-1.26.08-2.71-.48-3.83-1.16-1.84-1.12-3.49-2.55-5.2-3.88-1.52-1.18-2.62-2.76-4.45-3.73-1.25-.66-2.13-2.42-2.67-3.87-.43-1.14-.3-2.61-.05-3.86.38-1.89,3.3-2.81,5.31-1.71,3.36,1.84,6.68,3.71,9.64,6.25,1.69,1.44,4.05,2.17,6.19,3,2.06.8,4.22,1.35,6.34,1.96.54.15,1.13.16,1.69.17,1.31.02,2.62-.09,3.92.03,2.36.22,4.47-.35,6.45-1.61.33-.21.75-.51,1.09-.46,2.75.4,4.72-1.45,6.95-2.42,4.11-1.78,7.59-4.75,11.77-6.44.71-.29,1.18-1.1,1.81-1.62,1.87-1.53,3.15-3.7,5.47-4.79.67-.31,1.14-1.38,1.38-2.2.38-1.35,1.28-2.24,2.24-3.12.82-.75,1.24-1.62,1.24-2.79,0-.76.31-1.56.61-2.29.56-1.36.7-2.69-.11-3.96-.5-.78-.55-1.44-.09-2.26.98-1.75.9-3.54.04-5.34-.27-.56-.61-1.35-.41-1.83.91-2.15.13-4.32-.25-6.27-.52-2.66-1.16-5.51-3.29-7.61-.42-.41-.58-1.11-.82-1.69-.52-1.25-.93-2.57-1.56-3.76-.63-1.2-1.57-2.23-2.22-3.42-1.74-3.2-4.11-5.75-7.37-7.44-.35-.18-.64-.51-.91-.8-.7-.76-1.5-1.25-2.58-1.11-1.24.16-2.22-.29-3.01-1.25-.2-.25-.47-.62-.72-.63-2.71-.07-4.25-2.48-6.58-3.23-.97-.31-2.11-.28-3.15-.19-3.07.27-5.81-.69-8.52-1.96-.49-.23-1.1-.24-1.66-.26-1.31-.03-2.62.07-3.92-.04-.93-.08-1.87-.34-2.75-.67-1.28-.48-2.5-.62-3.73.09-.28.16-.55.47-.83.48-1.62.08-3.1.76-4.62,1.08-4.24.91-8.3,2.17-12.15,4.14-.9.46-2.03.47-2.93.93-1.49.75-2.82,1.82-4.32,2.55-2.36,1.14-4.83,2.03-7.19,3.17-1.43.69-2.68,1.73-4.09,2.45-2.26,1.16-4.32,2.83-7.02,2.97-.15,0-.31.1-.43.2-1.65,1.27-3.29,2.56-4.96,3.82-.63.47-1.38.8-1.98,1.31-.98.83-1.94,1.7-2.78,2.65-.68.77-1.13,1.74-1.78,2.54-1.01,1.24-2.24,2.22-2.95,3.8-.6,1.33-2.06,2.26-3.13,3.39-1.21,1.28-2.67,2.31-3.29,4.15-.31.91-1.34,1.61-2.12,2.32-2.68,2.43-4.36,5.53-6.07,8.64-1.23,2.24-1.99,4.74-3.8,6.69-.73.78-1.04,1.98-1.47,3.01-.4.95-.67,1.96-1.07,2.91-1.02,2.43-2.15,4.82-3.09,7.27-.31.8-.05,1.81-.3,2.65-.91,3.05-1.92,6.07-2.91,9.1-.35,1.06-.76,2.1-1.06,3.17-.1.34-.07.88.14,1.12.6.71.34,1.2,0,1.95-.37.85-.3,1.89-.37,2.86-.1,1.19.26,2.46-.72,3.5-.18.19-.29.75-.16.89,1.38,1.54-.24,2.63-.54,3.91-.18.77-.71,1.53-.64,2.26.21,2.3-1.13,4.17-1.49,6.3-.16.93-.6,1.84-.65,2.77-.11,1.79.05,3.6-.07,5.39-.07,1.01-.49,1.99-.72,2.99-.15.62-.35,1.26-.35,1.89-.03,5.23.01,10.45-.03,15.68-.01,1.69.71,2.55,2.24,3.33,1.55.79,3.06,1.06,4.67.9,2.61-.26,4.77,1.06,7.1,1.8.3.1.6.41.87.37,2.17-.31,4.11.56,6.1,1.11,1.22.34,2.52.56,3.63,1.13,2.48,1.3,5.46,1,7.82,2.82,1.12.86,2.84.91,4.26,1.39.73.25,1.49.54,2.1.99,1.09.81,1.81,2.09,3.31,2.41.31.07.47.77.76,1.14.7.88,1.3,2.23,2.2,2.49,2.22.64,3.08,2.35,3.8,4.1.58,1.43,1.52,2.47,2.54,3.5.75.75,1.45,1.55,2.26,2.24,3.83,3.29,6.21,7.56,8.37,12.01.88,1.81,1.88,3.57,2.63,5.43.84,2.08,1.5,4.21,2.62,6.17.25.45.13,1.12.13,1.69.01,1.72.06,3.43,0,5.14-.14,3.47-1.35,6.56-3.42,9.32-.19.26-.63.51-.61.73.17,2.2-1.82,3.34-2.46,5.13-.05.15-.09.33-.19.45-1.89,2.3-3.5,4.95-5.76,6.79-2.35,1.91-4.73,4.03-8.04,4.56-1.36.22-2.71,1.41-4.13.87-1.45-.56-2.94-.13-4.45-.81-1.89-.86-4.23-.69-6.28-1.29-1.83-.54-3.53-1.51-5.28-2.32-3.57-1.66-6.21-4.57-8.43-7.56-1.61-2.17-3.52-3.99-5.2-6.04-.7-.86-1.26-1.84-1.94-2.72-.49-.64-1.07-1.22-1.6-1.83-1.37-1.58-3.32-2.68-3.9-4.89-.06-.21-.3-.38-.48-.55-3.01-2.91-4.74-6.65-6.68-10.25-.72-1.34-.99-2.83-1.28-4.35-.43-2.23-1.5-4.37-2.45-6.48-1.44-3.21-2.83-6.43-3.89-9.79-.48-1.51-1.16-2.96-1.69-4.46-.19-.52-.21-1.1-.35-1.65-.21-.85-.52-1.68-.65-2.53-.2-1.35-.52-2.75-.36-4.08.43-3.46-1.37-4.47-5.22-5.2-1.5-.28-3.1-.04-4.65-.05-1.13,0-2.24.1-3.26-.72-.43-.35-1.23-.28-1.87-.32-2.07-.14-4.23.43-6.14-.94-.39-.28-1.12-.08-1.68-.12-2.71-.22-5.55.68-8.08-.99-.06-.04-.16-.03-.24-.03-4.08,0-8.17-.04-12.25.03-.58,0-1.15.52-1.71.82-2.26,1.2-4.42,2.53-6.34,4.27-1.29,1.18-2.68,2.5-4.28,3.05-2.58.9-4.4,2.96-6.87,3.92-2.51.97-5.19,1.61-7.53,2.89-1.97,1.08-4.37.37-6.12,1.92-.2.18-.63.17-.95.15-2.67-.19-4.93,1.18-7.37,1.81-1.98.51-3.82,1.86-6.05,1.4-.39-.08-.92-.13-1.2.08-2.13,1.56-4.56.79-6.86.96-1.82.14-3.73-.42-5.39.94-.41.34-1.26.18-1.91.18-3.68,0-7.35,0-11.03,0-.64,0-1.35-.05-1.92.17-3.26,1.28-4.43,1.28-7.14-.26-1.13,1.04-2.33,1.66-3.74.25-.31-.31-1.09-.16-1.65-.17-1.72,0-3.43,0-5.15,0-.57,0-1.32.1-1.67-.2-1.41-1.26-3.06-.88-4.65-.91-2.21-.04-4.41,0-6.62,0-1.29,0-2.59.19-3.72-.8-.36-.31-1.09-.24-1.65-.24-1.96-.03-3.93.07-5.88-.05-1.01-.06-1.98-.5-2.98-.71-.71-.15-1.43-.2-2.15-.31-.94-.15-1.88-.32-2.82-.49-.15-.03-.35-.21-.43-.16-2.5,1.4-4.32-.71-6.46-1.21-.7-.16-1.44-.23-2.17-.24-3.19-.02-6.37.06-9.56-.04-1.23-.04-2.44-.45-3.68-1.15-.53.33-1.06.65-1.39.85-2.14-.55-4.09-1.04-6.24-1.59-.85.22-2.12.29-3.08.87-1.13.68-2.17,1.68-2.9,2.78-.47.7-.7,1.37-1.64,1.54-.35.06-.84.39-.94.7-.69,2.23-3.02,2.72-4.37,4.24-1.4,1.59-2.76,3.39-4.52,4.44-3.32,1.97-5.47,5.54-9.37,6.65-.44.12-.84.5-1.17.84-1.11,1.19-2.36,2.11-3.85,2.82-1.21.58-2.26,1.5-3.41,2.23-.33.21-.76.43-1.12.4-1.1-.09-1.81.5-2.58,1.15-.6.5-1.36.82-2.07,1.16-2.66,1.29-4.77,3.53-7.67,4.43-.28.09-.49.42-.72.65-2.34,2.38-5.22,3.95-8.16,5.45-.42.22-.89.43-1.22.76-3.58,3.62-8.26,5.43-12.59,7.84-1.66.92-3.32,1.12-5.13,1.07-2.04-.06-4.09-.09-6.12.02-1.01.05-2.04.34-2.98.72-1.55.62-2.85.28-4.03-.87"/></svg>